<svg width="1440" height="1761" viewBox="0 0 1440 1850" fill="none" xmlns="http://www.w3.org/2000/svg">
<line x1="474.567" y1="1" x2="474.567" y2="1850" stroke="url(#paint0_linear_302_996)"/>
<line x1="966.506" y1="1" x2="966.506" y2="1850" stroke="url(#paint1_linear_302_996)"/>
<line x1="105.614" y1="1" x2="105.614" y2="1850" stroke="url(#paint2_linear_302_996)"/>
<line x1="720.536" y1="1" x2="720.536" y2="1850" stroke="url(#paint3_linear_302_996)"/>
<line x1="1212.47" y1="1" x2="1212.47" y2="1850" stroke="url(#paint4_linear_302_996)"/>
<line x1="597.552" y1="1" x2="597.552" y2="1850" stroke="url(#paint5_linear_302_996)"/>
<line x1="1089.49" y1="1" x2="1089.49" y2="1850" stroke="url(#paint6_linear_302_996)"/>
<line x1="228.599" y1="1" x2="228.599" y2="1850" stroke="url(#paint7_linear_302_996)"/>
<line x1="351.583" y1="1" x2="351.583" y2="1850" stroke="url(#paint8_linear_302_996)"/>
<line x1="843.521" y1="1" x2="843.521" y2="1850" stroke="url(#paint9_linear_302_996)"/>
<line x1="1335.46" y1="1" x2="1335.46" y2="1850" stroke="url(#paint10_linear_302_996)"/>
<line y1="-0.5" x2="1815.56" y2="-0.5" transform="matrix(-1 -2.23183e-08 4.56021e-08 1 1627.56 1107.86)" stroke="url(#paint11_linear_302_996)"/>
<line y1="-0.5" x2="1815.56" y2="-0.5" transform="matrix(-1 -2.23183e-08 4.56021e-08 1 1627.56 615.922)" stroke="url(#paint12_linear_302_996)"/>
<line y1="-0.5" x2="1815.56" y2="-0.5" transform="matrix(-1 -2.23183e-08 4.56021e-08 1 1627.56 1476.82)" stroke="url(#paint13_linear_302_996)"/>
<line y1="-0.5" x2="1815.56" y2="-0.5" transform="matrix(-1 -2.23183e-08 4.56021e-08 1 1627.56 123.984)" stroke="url(#paint14_linear_302_996)"/>
<line y1="-0.5" x2="1815.56" y2="-0.5" transform="matrix(-1 -2.23183e-08 4.56021e-08 1 1627.56 1353.83)" stroke="url(#paint15_linear_302_996)"/>
<line y1="-0.5" x2="1815.56" y2="-0.5" transform="matrix(-1 -2.23183e-08 4.56021e-08 1 1627.56 861.891)" stroke="url(#paint16_linear_302_996)"/>
<line y1="-0.5" x2="1815.56" y2="-0.5" transform="matrix(-1 -2.23183e-08 4.56021e-08 1 1627.56 1722.79)" stroke="url(#paint17_linear_302_996)"/>
<line y1="-0.5" x2="1815.56" y2="-0.5" transform="matrix(-1 -2.23183e-08 4.56021e-08 1 1627.56 369.953)" stroke="url(#paint18_linear_302_996)"/>
<line y1="-0.5" x2="1815.56" y2="-0.5" transform="matrix(-1 -2.23183e-08 4.56021e-08 1 1627.56 984.875)" stroke="url(#paint19_linear_302_996)"/>
<line y1="-0.5" x2="1815.56" y2="-0.5" transform="matrix(-1 -2.23183e-08 4.56021e-08 1 1627.56 492.938)" stroke="url(#paint20_linear_302_996)"/>
<line y1="-0.5" x2="1815.56" y2="-0.5" transform="matrix(-1 -2.23183e-08 4.56021e-08 1 1627.56 1353.83)" stroke="url(#paint21_linear_302_996)"/>
<line y1="-0.5" x2="1815.56" y2="-0.5" transform="matrix(-1 -2.23183e-08 4.56021e-08 1 1627.56 1)" stroke="url(#paint22_linear_302_996)"/>
<line y1="-0.5" x2="1815.56" y2="-0.5" transform="matrix(-1 -2.23183e-08 4.56021e-08 1 1627.56 1230.84)" stroke="url(#paint23_linear_302_996)"/>
<line y1="-0.5" x2="1815.56" y2="-0.5" transform="matrix(-1 -2.23183e-08 4.56021e-08 1 1627.56 738.906)" stroke="url(#paint24_linear_302_996)"/>
<line y1="-0.5" x2="1815.56" y2="-0.5" transform="matrix(-1 -2.23183e-08 4.56021e-08 1 1627.56 1599.8)" stroke="url(#paint25_linear_302_996)"/>
<line y1="-0.5" x2="1815.56" y2="-0.5" transform="matrix(-1 -2.23183e-08 4.56021e-08 1 1627.56 246.969)" stroke="url(#paint26_linear_302_996)"/>
<defs>
<linearGradient id="paint0_linear_302_996" x1="474.067" y1="880.852" x2="473.067" y2="880.852" gradientUnits="userSpaceOnUse">
<stop stop-color="white"/>
<stop offset="0.23" stop-color="#131313"/>
<stop offset="0.45" stop-color="#131313"/>
<stop offset="0.6" stop-color="white"/>
<stop offset="1" stop-color="#131313"/>
</linearGradient>
<linearGradient id="paint1_linear_302_996" x1="966.006" y1="880.852" x2="965.006" y2="880.852" gradientUnits="userSpaceOnUse">
<stop stop-color="white"/>
<stop offset="0.23" stop-color="#131313"/>
<stop offset="0.45" stop-color="#131313"/>
<stop offset="0.6" stop-color="white"/>
<stop offset="1" stop-color="#131313"/>
</linearGradient>
<linearGradient id="paint2_linear_302_996" x1="105.114" y1="880.852" x2="104.114" y2="880.852" gradientUnits="userSpaceOnUse">
<stop stop-color="white"/>
<stop offset="0.23" stop-color="#131313"/>
<stop offset="0.45" stop-color="#131313"/>
<stop offset="0.6" stop-color="white"/>
<stop offset="1" stop-color="#131313"/>
</linearGradient>
<linearGradient id="paint3_linear_302_996" x1="720.036" y1="880.852" x2="719.036" y2="880.852" gradientUnits="userSpaceOnUse">
<stop stop-color="white"/>
<stop offset="0.23" stop-color="#131313"/>
<stop offset="0.45" stop-color="#131313"/>
<stop offset="0.6" stop-color="white"/>
<stop offset="1" stop-color="#131313"/>
</linearGradient>
<linearGradient id="paint4_linear_302_996" x1="1211.97" y1="880.852" x2="1210.97" y2="880.852" gradientUnits="userSpaceOnUse">
<stop stop-color="white"/>
<stop offset="0.23" stop-color="#131313"/>
<stop offset="0.45" stop-color="#131313"/>
<stop offset="0.6" stop-color="white"/>
<stop offset="1" stop-color="#131313"/>
</linearGradient>
<linearGradient id="paint5_linear_302_996" x1="597.052" y1="880.852" x2="596.052" y2="880.852" gradientUnits="userSpaceOnUse">
<stop stop-color="white"/>
<stop offset="0.23" stop-color="#131313"/>
<stop offset="0.45" stop-color="#131313"/>
<stop offset="0.6" stop-color="white"/>
<stop offset="1" stop-color="#131313"/>
</linearGradient>
<linearGradient id="paint6_linear_302_996" x1="1088.99" y1="880.852" x2="1087.99" y2="880.852" gradientUnits="userSpaceOnUse">
<stop stop-color="white"/>
<stop offset="0.23" stop-color="#131313"/>
<stop offset="0.45" stop-color="#131313"/>
<stop offset="0.6" stop-color="white"/>
<stop offset="1" stop-color="#131313"/>
</linearGradient>
<linearGradient id="paint7_linear_302_996" x1="228.099" y1="880.852" x2="227.099" y2="880.852" gradientUnits="userSpaceOnUse">
<stop stop-color="white"/>
<stop offset="0.23" stop-color="#131313"/>
<stop offset="0.45" stop-color="#131313"/>
<stop offset="0.6" stop-color="white"/>
<stop offset="1" stop-color="#131313"/>
</linearGradient>
<linearGradient id="paint8_linear_302_996" x1="351.083" y1="880.852" x2="350.083" y2="880.852" gradientUnits="userSpaceOnUse">
<stop stop-color="white"/>
<stop offset="0.23" stop-color="#131313"/>
<stop offset="0.45" stop-color="#131313"/>
<stop offset="0.6" stop-color="white"/>
<stop offset="1" stop-color="#131313"/>
</linearGradient>
<linearGradient id="paint9_linear_302_996" x1="843.021" y1="880.852" x2="842.021" y2="880.852" gradientUnits="userSpaceOnUse">
<stop stop-color="white"/>
<stop offset="0.23" stop-color="#131313"/>
<stop offset="0.45" stop-color="#131313"/>
<stop offset="0.6" stop-color="white"/>
<stop offset="1" stop-color="#131313"/>
</linearGradient>
<linearGradient id="paint10_linear_302_996" x1="1334.96" y1="880.852" x2="1333.96" y2="880.852" gradientUnits="userSpaceOnUse">
<stop stop-color="white"/>
<stop offset="0.23" stop-color="#131313"/>
<stop offset="0.45" stop-color="#131313"/>
<stop offset="0.6" stop-color="white"/>
<stop offset="1" stop-color="#131313"/>
</linearGradient>
<linearGradient id="paint11_linear_302_996" x1="907.78" y1="0" x2="907.78" y2="1" gradientUnits="userSpaceOnUse">
<stop stop-color="white"/>
<stop offset="0.23" stop-color="#131313"/>
<stop offset="0.45" stop-color="#131313"/>
<stop offset="0.6" stop-color="white"/>
<stop offset="1" stop-color="#131313"/>
</linearGradient>
<linearGradient id="paint12_linear_302_996" x1="907.78" y1="0" x2="907.78" y2="1" gradientUnits="userSpaceOnUse">
<stop stop-color="white"/>
<stop offset="0.23" stop-color="#131313"/>
<stop offset="0.45" stop-color="#131313"/>
<stop offset="0.6" stop-color="white"/>
<stop offset="1" stop-color="#131313"/>
</linearGradient>
<linearGradient id="paint13_linear_302_996" x1="907.78" y1="0" x2="907.78" y2="1" gradientUnits="userSpaceOnUse">
<stop stop-color="white"/>
<stop offset="0.23" stop-color="#131313"/>
<stop offset="0.45" stop-color="#131313"/>
<stop offset="0.6" stop-color="white"/>
<stop offset="1" stop-color="#131313"/>
</linearGradient>
<linearGradient id="paint14_linear_302_996" x1="907.78" y1="0" x2="907.78" y2="1" gradientUnits="userSpaceOnUse">
<stop stop-color="white"/>
<stop offset="0.23" stop-color="#131313"/>
<stop offset="0.45" stop-color="#131313"/>
<stop offset="0.6" stop-color="white"/>
<stop offset="1" stop-color="#131313"/>
</linearGradient>
<linearGradient id="paint15_linear_302_996" x1="907.78" y1="0" x2="907.78" y2="1" gradientUnits="userSpaceOnUse">
<stop stop-color="white"/>
<stop offset="0.23" stop-color="#131313"/>
<stop offset="0.45" stop-color="#131313"/>
<stop offset="0.6" stop-color="white"/>
<stop offset="1" stop-color="#131313"/>
</linearGradient>
<linearGradient id="paint16_linear_302_996" x1="907.78" y1="0" x2="907.78" y2="1" gradientUnits="userSpaceOnUse">
<stop stop-color="white"/>
<stop offset="0.23" stop-color="#131313"/>
<stop offset="0.45" stop-color="#131313"/>
<stop offset="0.6" stop-color="white"/>
<stop offset="1" stop-color="#131313"/>
</linearGradient>
<linearGradient id="paint17_linear_302_996" x1="907.78" y1="0" x2="907.78" y2="1" gradientUnits="userSpaceOnUse">
<stop stop-color="white"/>
<stop offset="0.23" stop-color="#131313"/>
<stop offset="0.45" stop-color="#131313"/>
<stop offset="0.6" stop-color="white"/>
<stop offset="1" stop-color="#131313"/>
</linearGradient>
<linearGradient id="paint18_linear_302_996" x1="907.78" y1="0" x2="907.78" y2="1" gradientUnits="userSpaceOnUse">
<stop stop-color="white"/>
<stop offset="0.23" stop-color="#131313"/>
<stop offset="0.45" stop-color="#131313"/>
<stop offset="0.6" stop-color="white"/>
<stop offset="1" stop-color="#131313"/>
</linearGradient>
<linearGradient id="paint19_linear_302_996" x1="907.78" y1="0" x2="907.78" y2="1" gradientUnits="userSpaceOnUse">
<stop stop-color="white"/>
<stop offset="0.23" stop-color="#131313"/>
<stop offset="0.45" stop-color="#131313"/>
<stop offset="0.6" stop-color="white"/>
<stop offset="1" stop-color="#131313"/>
</linearGradient>
<linearGradient id="paint20_linear_302_996" x1="907.78" y1="0" x2="907.78" y2="1" gradientUnits="userSpaceOnUse">
<stop stop-color="white"/>
<stop offset="0.23" stop-color="#131313"/>
<stop offset="0.45" stop-color="#131313"/>
<stop offset="0.6" stop-color="white"/>
<stop offset="1" stop-color="#131313"/>
</linearGradient>
<linearGradient id="paint21_linear_302_996" x1="907.78" y1="0" x2="907.78" y2="1" gradientUnits="userSpaceOnUse">
<stop stop-color="white"/>
<stop offset="0.23" stop-color="#131313"/>
<stop offset="0.45" stop-color="#131313"/>
<stop offset="0.6" stop-color="white"/>
<stop offset="1" stop-color="#131313"/>
</linearGradient>
<linearGradient id="paint22_linear_302_996" x1="907.78" y1="0" x2="907.78" y2="1" gradientUnits="userSpaceOnUse">
<stop stop-color="white"/>
<stop offset="0.23" stop-color="#131313"/>
<stop offset="0.45" stop-color="#131313"/>
<stop offset="0.6" stop-color="white"/>
<stop offset="1" stop-color="#131313"/>
</linearGradient>
<linearGradient id="paint23_linear_302_996" x1="907.78" y1="0" x2="907.78" y2="1" gradientUnits="userSpaceOnUse">
<stop stop-color="white"/>
<stop offset="0.23" stop-color="#131313"/>
<stop offset="0.45" stop-color="#131313"/>
<stop offset="0.6" stop-color="white"/>
<stop offset="1" stop-color="#131313"/>
</linearGradient>
<linearGradient id="paint24_linear_302_996" x1="907.78" y1="0" x2="907.78" y2="1" gradientUnits="userSpaceOnUse">
<stop stop-color="white"/>
<stop offset="0.23" stop-color="#131313"/>
<stop offset="0.45" stop-color="#131313"/>
<stop offset="0.6" stop-color="white"/>
<stop offset="1" stop-color="#131313"/>
</linearGradient>
<linearGradient id="paint25_linear_302_996" x1="907.78" y1="0" x2="907.78" y2="1" gradientUnits="userSpaceOnUse">
<stop stop-color="white"/>
<stop offset="0.23" stop-color="#131313"/>
<stop offset="0.45" stop-color="#131313"/>
<stop offset="0.6" stop-color="white"/>
<stop offset="1" stop-color="#131313"/>
</linearGradient>
<linearGradient id="paint26_linear_302_996" x1="907.78" y1="0" x2="907.78" y2="1" gradientUnits="userSpaceOnUse">
<stop stop-color="white"/>
<stop offset="0.23" stop-color="#131313"/>
<stop offset="0.45" stop-color="#131313"/>
<stop offset="0.6" stop-color="white"/>
<stop offset="1" stop-color="#131313"/>
</linearGradient>
</defs>
</svg>
